{
  "accessors": [
    {
      "bufferView": 2,
      "componentType": 5126,
      "count": 13851,
      "max": [
        7.8932499885559082,
        -1.1942529678344727,
        9.6700649261474609
      ],
      "min": [
        -4.7054719924926758,
        -19.821937561035156,
        -9.139033317565918
      ],
      "type": "VEC3"
    },
    {
      "bufferView": 2,
      "byteOffset": 166212,
      "componentType": 5126,
      "count": 13851,
      "max": [
        0.99995136260986328,
        0.99990475177764893,
        0.99786865711212158
      ],
      "min": [
        -0.99999010562896729,
        -0.99997788667678833,
        -0.99994385242462158
      ],
      "type": "VEC3"
    },
    {
      "bufferView": 3,
      "componentType": 5126,
      "count": 13851,
      "max": [
        0.99923300743103027,
        0.84626656770706177,
        0.99841797351837158,
        1
      ],
      "min": [
        -0.9997633695602417,
        -0.95801264047622681,
        -0.99999642372131348,
        -1
      ],
      "type": "VEC4"
    },
    {
      "bufferView": 1,
      "componentType": 5126,
      "count": 13851,
      "max": [
        0.98728197813034058,
        0.99799197912216187
      ],
      "min": [
        0.3569679856300354,
        0.21993899345397949
      ],
      "type": "VEC2"
    },
    {
      "bufferView": 0,
      "componentType": 5125,
      "count": 80361,
      "max": [
        13850
      ],
      "min": [
        0
      ],
      "type": "SCALAR"
    },
    {
      "bufferView": 2,
      "byteOffset": 332424,
      "componentType": 5126,
      "count": 20313,
      "max": [
        7.6244611740112305,
        -1.2039350271224976,
        10.042279243469238
      ],
      "min": [
        -4.4257221221923828,
        -20.242424011230469,
        -11.09398078918457
      ],
      "type": "VEC3"
    },
    {
      "bufferView": 2,
      "byteOffset": 576180,
      "componentType": 5126,
      "count": 20313,
      "max": [
        0.99996262788772583,
        0.98789548873901367,
        0.99998247623443604
      ],
      "min": [
        -0.99991124868392944,
        -0.99998849630355835,
        -0.99995124340057373
      ],
      "type": "VEC3"
    },
    {
      "bufferView": 3,
      "byteOffset": 221616,
      "componentType": 5126,
      "count": 20313,
      "max": [
        0.99996858835220337,
        0.86372530460357666,
        0.99920022487640381,
        1
      ],
      "min": [
        -1,
        -0.94287949800491333,
        -0.99984908103942871,
        -1
      ],
      "type": "VEC4"
    },
    {
      "bufferView": 1,
      "byteOffset": 110808,
      "componentType": 5126,
      "count": 20313,
      "max": [
        0.98452401161193848,
        0.99946701526641846
      ],
      "min": [
        0.21967500448226929,
        0.0060169999487698078
      ],
      "type": "VEC2"
    },
    {
      "bufferView": 0,
      "byteOffset": 321444,
      "componentType": 5125,
      "count": 117807,
      "max": [
        20312
      ],
      "min": [
        0
      ],
      "type": "SCALAR"
    },
    {
      "bufferView": 2,
      "byteOffset": 819936,
      "componentType": 5126,
      "count": 31191,
      "max": [
        7.59527587890625,
        -1.4014489650726318,
        9.6331338882446289
      ],
      "min": [
        -4.3308629989624023,
        -20.600912094116211,
        -10.7325439453125
      ],
      "type": "VEC3"
    },
    {
      "bufferView": 2,
      "byteOffset": 1194228,
      "componentType": 5126,
      "count": 31191,
      "max": [
        0.99999326467514038,
        0.96509462594985962,
        0.9998357892036438
      ],
      "min": [
        -0.99997735023498535,
        -0.99999785423278809,
        -0.99983888864517212
      ],
      "type": "VEC3"
    },
    {
      "bufferView": 3,
      "byteOffset": 546624,
      "componentType": 5126,
      "count": 31191,
      "max": [
        0.9961855411529541,
        0.86391216516494751,
        0.99996167421340942,
        1
      ],
      "min": [
        -0.99459248781204224,
        -0.7757725715637207,
        -0.99999600648880005,
        -1
      ],
      "type": "VEC4"
    },
    {
      "bufferView": 1,
      "byteOffset": 273312,
      "componentType": 5126,
      "count": 31191,
      "max": [
        0.95716500282287598,
        0.99795997142791748
      ],
      "min": [
        0.051265999674797058,
        0.060731999576091766
      ],
      "type": "VEC2"
    },
    {
      "bufferView": 0,
      "byteOffset": 792672,
      "componentType": 5125,
      "count": 182889,
      "max": [
        31190
      ],
      "min": [
        0
      ],
      "type": "SCALAR"
    },
    {
      "bufferView": 2,
      "byteOffset": 1568520,
      "componentType": 5126,
      "count": 30757,
      "max": [
        7.655886173248291,
        -1.2574160099029541,
        9.6011295318603516
      ],
      "min": [
        -4.5508089065551758,
        -20.102533340454102,
        -11.035770416259766
      ],
      "type": "VEC3"
    },
    {
      "bufferView": 2,
      "byteOffset": 1937604,
      "componentType": 5126,
      "count": 30757,
      "max": [
        0.99984246492385864,
        0.99982190132141113,
        0.99998724460601807
      ],
      "min": [
        -0.99999266862869263,
        -0.99998664855957031,
        -0.99999654293060303
      ],
      "type": "VEC3"
    },
    {
      "bufferView": 3,
      "byteOffset": 1045680,
      "componentType": 5126,
      "count": 30757,
      "max": [
        0.99995100498199463,
        0.87458723783493042,
        0.99887263774871826,
        1
      ],
      "min": [
        -0.99997520446777344,
        -0.79031544923782349,
        -0.99996286630630493,
        -1
      ],
      "type": "VEC4"
    },
    {
      "bufferView": 1,
      "byteOffset": 522840,
      "componentType": 5126,
      "count": 30757,
      "max": [
        0.9973989725112915,
        0.99933099746704102
      ],
      "min": [
        0.0019700000993907452,
        0.3322870135307312
      ],
      "type": "VEC2"
    },
    {
      "bufferView": 0,
      "byteOffset": 1524228,
      "componentType": 5125,
      "count": 178014,
      "max": [
        30756
      ],
      "min": [
        0
      ],
      "type": "SCALAR"
    },
    {
      "bufferView": 2,
      "byteOffset": 2306688,
      "componentType": 5126,
      "count": 20802,
      "max": [
        5.3870987892150879,
        -1.325732946395874,
        10.253568649291992
      ],
      "min": [
        -3.6304230690002441,
        -19.694326400756836,
        -10.041150093078613
      ],
      "type": "VEC3"
    },
    {
      "bufferView": 2,
      "byteOffset": 2556312,
      "componentType": 5126,
      "count": 20802,
      "max": [
        0.99960285425186157,
        0.99999099969863892,
        0.99994277954101562
      ],
      "min": [
        -0.99999773502349854,
        -0.99997490644454956,
        -0.99998873472213745
      ],
      "type": "VEC3"
    },
    {
      "bufferView": 3,
      "byteOffset": 1537792,
      "componentType": 5126,
      "count": 20802,
      "max": [
        0.99999320507049561,
        0.97589331865310669,
        0.95326358079910278,
        1
      ],
      "min": [
        -0.99997162818908691,
        -0.72953319549560547,
        -0.99999380111694336,
        -1
      ],
      "type": "VEC4"
    },
    {
      "bufferView": 1,
      "byteOffset": 768896,
      "componentType": 5126,
      "count": 20802,
      "max": [
        0.95249897241592407,
        0.99804097414016724
      ],
      "min": [
        0.0020649998914450407,
        0.23691099882125854
      ],
      "type": "VEC2"
    },
    {
      "bufferView": 0,
      "byteOffset": 2236284,
      "componentType": 5125,
      "count": 120804,
      "max": [
        20801
      ],
      "min": [
        0
      ],
      "type": "SCALAR"
    },
    {
      "bufferView": 2,
      "byteOffset": 2805936,
      "componentType": 5126,
      "count": 18087,
      "max": [
        7.8345389366149902,
        -1.2080210447311401,
        10.168427467346191
      ],
      "min": [
        -4.6875429153442383,
        -20.600912094116211,
        -11.274754524230957
      ],
      "type": "VEC3"
    },
    {
      "bufferView": 2,
      "byteOffset": 3022980,
      "componentType": 5126,
      "count": 18087,
      "max": [
        0.99997466802597046,
        0.98439699411392212,
        0.99998188018798828
      ],
      "min": [
        -0.99982738494873047,
        -0.99999797344207764,
        -0.99999475479125977
      ],
      "type": "VEC3"
    },
    {
      "bufferView": 3,
      "byteOffset": 1870624,
      "componentType": 5126,
      "count": 18087,
      "max": [
        0.99792498350143433,
        0.81724464893341064,
        0.99939590692520142,
        1
      ],
      "min": [
        -0.9999924898147583,
        -0.79568362236022949,
        -0.99999982118606567,
        -1
      ],
      "type": "VEC4"
    },
    {
      "bufferView": 1,
      "byteOffset": 935312,
      "componentType": 5126,
      "count": 18087,
      "max": [
        0.95836400985717773,
        0.99799197912216187
      ],
      "min": [
        0.00023200000578071922,
        0.13198700547218323
      ],
      "type": "VEC2"
    },
    {
      "bufferView": 0,
      "byteOffset": 2719500,
      "componentType": 5125,
      "count": 105339,
      "max": [
        18086
      ],
      "min": [
        0
      ],
      "type": "SCALAR"
    },
    {
      "bufferView": 2,
      "byteOffset": 3240024,
      "componentType": 5126,
      "count": 27,
      "max": [
        2.036963939666748,
        -1.6909910440444946,
        9.9540948867797852
      ],
      "min": [
        -2.2333970069885254,
        -9.004023551940918,
        -8.7654275894165039
      ],
      "type": "VEC3"
    },
    {
      "bufferView": 2,
      "byteOffset": 3240348,
      "componentType": 5126,
      "count": 27,
      "max": [
        0.84037256240844727,
        0.97396910190582275,
        0.57259917259216309
      ],
      "min": [
        -0.24942390620708466,
        0.53896713256835938,
        -0.64378619194030762
      ],
      "type": "VEC3"
    },
    {
      "bufferView": 0,
      "byteOffset": 3140856,
      "componentType": 5125,
      "count": 48,
      "max": [
        26
      ],
      "min": [
        0
      ],
      "type": "SCALAR"
    },
    {
      "bufferView": 2,
      "byteOffset": 3240672,
      "componentType": 5126,
      "count": 12163,
      "max": [
        7.7803459167480469,
        -1.1274340152740479,
        9.811701774597168
      ],
      "min": [
        -4.3249292373657227,
        -20.600912094116211,
        -11.189851760864258
      ],
      "type": "VEC3"
    },
    {
      "bufferView": 2,
      "byteOffset": 3386628,
      "componentType": 5126,
      "count": 12163,
      "max": [
        0.99520063400268555,
        0.9999997615814209,
        0.99943190813064575
      ],
      "min": [
        -0.99977785348892212,
        -0.99929463863372803,
        -0.99540162086486816
      ],
      "type": "VEC3"
    },
    {
      "bufferView": 3,
      "byteOffset": 2160016,
      "componentType": 5126,
      "count": 12163,
      "max": [
        0.99858903884887695,
        0.99908608198165894,
        0.99970966577529907,
        1
      ],
      "min": [
        -0.99717998504638672,
        -0.98638111352920532,
        -0.99999940395355225,
        -1
      ],
      "type": "VEC4"
    },
    {
      "bufferView": 1,
      "byteOffset": 1080008,
      "componentType": 5126,
      "count": 12163,
      "max": [
        0.12521399557590485,
        1
      ],
      "min": [
        0,
        0.86797499656677246
      ],
      "type": "VEC2"
    },
    {
      "bufferView": 0,
      "byteOffset": 3141048,
      "componentType": 5125,
      "count": 69438,
      "max": [
        12162
      ],
      "min": [
        0
      ],
      "type": "SCALAR"
    }
  ],
  "asset": {
    "extras": {
      "author": "John Fino (tauricity) (https://sketchfab.com/tauricity)",
      "license": "CC-BY-4.0 (http://creativecommons.org/licenses/by/4.0/)",
      "source": "https://sketchfab.com/models/5a0d2e4dea71474abb55b7c2bfb6e715",
      "title": "Hallet And Davis Piano, 1896 #3DST19"
    },
    "generator": "Sketchfab-3.20.5",
    "version": "2.0"
  },
  "bufferViews": [
    {
      "buffer": 0,
      "byteLength": 3418800,
      "byteOffset": 0,
      "name": "floatBufferViews",
      "target": 34963
    },
    {
      "buffer": 0,
      "byteLength": 1177312,
      "byteOffset": 3418800,
      "byteStride": 8,
      "name": "floatBufferViews",
      "target": 34962
    },
    {
      "buffer": 0,
      "byteLength": 3532584,
      "byteOffset": 4596112,
      "byteStride": 12,
      "name": "floatBufferViews",
      "target": 34962
    },
    {
      "buffer": 0,
      "byteLength": 2354624,
      "byteOffset": 8128696,
      "byteStride": 16,
      "name": "floatBufferViews",
      "target": 34962
    }
  ],
  "buffers": [
    {
      "byteLength": 10483320,
      "uri": "scene.bin"
    }
  ],
  "extensionsUsed": [
    "KHR_materials_unlit"
  ],
  "images": [
    {
      "uri": "textures/Material_1_baseColor.jpeg"
    },
    {
      "uri": "textures/Material_2_baseColor.jpeg"
    },
    {
      "uri": "textures/Material_3_baseColor.jpeg"
    },
    {
      "uri": "textures/Material_0_baseColor.jpeg"
    },
    {
      "uri": "textures/Material_7_baseColor.jpeg"
    },
    {
      "uri": "textures/Material_4_baseColor.jpeg"
    },
    {
      "uri": "textures/Material_5_baseColor.jpeg"
    }
  ],
  "materials": [
    {
      "doubleSided": true,
      "emissiveFactor": [
        0,
        0,
        0
      ],
      "extensions": {
        "KHR_materials_unlit": {}
      },
      "name": "Material_0",
      "pbrMetallicRoughness": {
        "baseColorFactor": [
          1,
          1,
          1,
          1
        ],
        "baseColorTexture": {
          "index": 3,
          "texCoord": 0
        },
        "metallicFactor": 0,
        "roughnessFactor": 1
      }
    },
    {
      "doubleSided": true,
      "emissiveFactor": [
        0,
        0,
        0
      ],
      "extensions": {
        "KHR_materials_unlit": {}
      },
      "name": "Material_1",
      "pbrMetallicRoughness": {
        "baseColorFactor": [
          1,
          1,
          1,
          1
        ],
        "baseColorTexture": {
          "index": 0,
          "texCoord": 0
        },
        "metallicFactor": 0,
        "roughnessFactor": 1
      }
    },
    {
      "doubleSided": true,
      "emissiveFactor": [
        0,
        0,
        0
      ],
      "extensions": {
        "KHR_materials_unlit": {}
      },
      "name": "Material_2",
      "pbrMetallicRoughness": {
        "baseColorFactor": [
          1,
          1,
          1,
          1
        ],
        "baseColorTexture": {
          "index": 1,
          "texCoord": 0
        },
        "metallicFactor": 0,
        "roughnessFactor": 1
      }
    },
    {
      "doubleSided": true,
      "emissiveFactor": [
        0,
        0,
        0
      ],
      "extensions": {
        "KHR_materials_unlit": {}
      },
      "name": "Material_3",
      "pbrMetallicRoughness": {
        "baseColorFactor": [
          1,
          1,
          1,
          1
        ],
        "baseColorTexture": {
          "index": 2,
          "texCoord": 0
        },
        "metallicFactor": 0,
        "roughnessFactor": 1
      }
    },
    {
      "doubleSided": true,
      "emissiveFactor": [
        0,
        0,
        0
      ],
      "extensions": {
        "KHR_materials_unlit": {}
      },
      "name": "Material_4",
      "pbrMetallicRoughness": {
        "baseColorFactor": [
          1,
          1,
          1,
          1
        ],
        "baseColorTexture": {
          "index": 5,
          "texCoord": 0
        },
        "metallicFactor": 0,
        "roughnessFactor": 1
      }
    },
    {
      "doubleSided": true,
      "emissiveFactor": [
        0,
        0,
        0
      ],
      "extensions": {
        "KHR_materials_unlit": {}
      },
      "name": "Material_5",
      "pbrMetallicRoughness": {
        "baseColorFactor": [
          1,
          1,
          1,
          1
        ],
        "baseColorTexture": {
          "index": 6,
          "texCoord": 0
        },
        "metallicFactor": 0,
        "roughnessFactor": 1
      }
    },
    {
      "doubleSided": true,
      "emissiveFactor": [
        0,
        0,
        0
      ],
      "extensions": {
        "KHR_materials_unlit": {}
      },
      "name": "Material_6",
      "pbrMetallicRoughness": {
        "baseColorFactor": [
          0.5,
          0.5,
          0.5,
          1
        ],
        "metallicFactor": 0,
        "roughnessFactor": 1
      }
    },
    {
      "doubleSided": true,
      "emissiveFactor": [
        0,
        0,
        0
      ],
      "extensions": {
        "KHR_materials_unlit": {}
      },
      "name": "Material_7",
      "pbrMetallicRoughness": {
        "baseColorFactor": [
          1,
          1,
          1,
          1
        ],
        "baseColorTexture": {
          "index": 4,
          "texCoord": 0
        },
        "metallicFactor": 0,
        "roughnessFactor": 1
      }
    }
  ],
  "meshes": [
    {
      "primitives": [
        {
          "attributes": {
            "NORMAL": 1,
            "POSITION": 0,
            "TANGENT": 2,
            "TEXCOORD_0": 3
          },
          "indices": 4,
          "material": 0,
          "mode": 4
        }
      ]
    },
    {
      "primitives": [
        {
          "attributes": {
            "NORMAL": 6,
            "POSITION": 5,
            "TANGENT": 7,
            "TEXCOORD_0": 8
          },
          "indices": 9,
          "material": 1,
          "mode": 4
        }
      ]
    },
    {
      "primitives": [
        {
          "attributes": {
            "NORMAL": 11,
            "POSITION": 10,
            "TANGENT": 12,
            "TEXCOORD_0": 13
          },
          "indices": 14,
          "material": 2,
          "mode": 4
        }
      ]
    },
    {
      "primitives": [
        {
          "attributes": {
            "NORMAL": 16,
            "POSITION": 15,
            "TANGENT": 17,
            "TEXCOORD_0": 18
          },
          "indices": 19,
          "material": 3,
          "mode": 4
        }
      ]
    },
    {
      "primitives": [
        {
          "attributes": {
            "NORMAL": 21,
            "POSITION": 20,
            "TANGENT": 22,
            "TEXCOORD_0": 23
          },
          "indices": 24,
          "material": 4,
          "mode": 4
        }
      ]
    },
    {
      "primitives": [
        {
          "attributes": {
            "NORMAL": 26,
            "POSITION": 25,
            "TANGENT": 27,
            "TEXCOORD_0": 28
          },
          "indices": 29,
          "material": 5,
          "mode": 4
        }
      ]
    },
    {
      "primitives": [
        {
          "attributes": {
            "NORMAL": 31,
            "POSITION": 30
          },
          "indices": 32,
          "material": 6,
          "mode": 4
        }
      ]
    },
    {
      "primitives": [
        {
          "attributes": {
            "NORMAL": 34,
            "POSITION": 33,
            "TANGENT": 35,
            "TEXCOORD_0": 36
          },
          "indices": 37,
          "material": 7,
          "mode": 4
        }
      ]
    }
  ],
  "nodes": [
    {
      "children": [
        1
      ],
      "name": "RootNode (gltf orientation matrix)",
      "rotation": [
        -0.70710678118654746,
        -0,
        -0,
        0.70710678118654757
      ]
    },
    {
      "children": [
        2
      ],
      "matrix": [
        1,
        0,
        0,
        0,
        0,
        0,
        -1,
        0,
        0,
        1,
        0,
        0,
        0,
        0,
        0,
        1
      ],
      "name": "RootNode (model correction matrix)"
    },
    {
      "children": [
        3,
        4,
        5,
        6,
        7,
        8,
        9,
        10
      ],
      "name": "Hallet and Davis Piano 2-exported.obj.cleaner.materialmerger.gles"
    },
    {
      "mesh": 0,
      "name": ""
    },
    {
      "mesh": 1,
      "name": ""
    },
    {
      "mesh": 2,
      "name": ""
    },
    {
      "mesh": 3,
      "name": ""
    },
    {
      "mesh": 4,
      "name": ""
    },
    {
      "mesh": 5,
      "name": ""
    },
    {
      "mesh": 6,
      "name": ""
    },
    {
      "mesh": 7,
      "name": ""
    }
  ],
  "samplers": [
    {
      "magFilter": 9729,
      "minFilter": 9987,
      "wrapS": 10497,
      "wrapT": 10497
    }
  ],
  "scene": 0,
  "scenes": [
    {
      "name": "OSG_Scene",
      "nodes": [
        0
      ]
    }
  ],
  "textures": [
    {
      "sampler": 0,
      "source": 0
    },
    {
      "sampler": 0,
      "source": 1
    },
    {
      "sampler": 0,
      "source": 2
    },
    {
      "sampler": 0,
      "source": 3
    },
    {
      "sampler": 0,
      "source": 4
    },
    {
      "sampler": 0,
      "source": 5
    },
    {
      "sampler": 0,
      "source": 6
    }
  ]
}

